<?xml version="1.0" standalone="no"?>
<!DOCTYPE svg PUBLIC "-//W3C//DTD SVG 20010904//EN"
 "http://www.w3.org/TR/2001/REC-SVG-20010904/DTD/svg10.dtd">
<svg version="1.0" xmlns="http://www.w3.org/2000/svg"
 width="199.000000pt" height="199.000000pt" viewBox="0 0 199.000000 199.000000"
 preserveAspectRatio="xMidYMid meet">

<g transform="translate(0.000000,199.000000) scale(0.100000,-0.100000)"
fill="#000000" stroke="none">
<path d="M0 990 l0 -990 990 0 990 0 0 990 0 990 -990 0 -990 0 0 -990z m1411
602 c120 -34 209 -104 251 -199 16 -37 19 -62 16 -132 -2 -74 -8 -96 -37 -155
-55 -112 -192 -235 -299 -267 -65 -19 -68 -11 -53 128 6 65 13 127 14 138 2
16 -3 20 -25 18 -46 -3 -31 15 26 31 88 26 84 36 64 -150 -6 -63 -9 -116 -6
-120 13 -12 111 52 155 100 158 177 159 407 1 513 -93 63 -176 85 -313 84
-254 -1 -489 -98 -668 -276 -114 -113 -177 -234 -185 -353 -4 -66 -2 -78 27
-137 52 -105 131 -162 264 -189 94 -20 187 -20 292 -1 154 28 137 3 -20 -30
-354 -74 -634 88 -612 355 10 117 61 218 170 336 136 147 384 278 591 313 97
16 276 12 347 -7z m-16 -303 c11 -17 -4 -58 -25 -69 -25 -13 -60 3 -60 27 0
39 67 72 85 42z m-457 -180 c-2 -44 0 -56 7 -43 39 66 100 110 141 100 32 -8
39 -54 25 -157 -17 -129 -17 -132 20 -124 54 12 29 -17 -34 -39 -82 -30 -85
-24 -66 123 16 126 15 141 -6 141 -37 0 -96 -117 -110 -217 l-7 -53 -40 0
c-38 0 -39 1 -34 28 12 56 26 168 26 211 0 41 -1 43 -25 37 -18 -5 -25 -2 -25
8 0 8 22 20 53 29 81 24 79 25 75 -44z m-241 30 c3 -12 11 -18 19 -15 8 3 14
-1 14 -8 0 -16 -42 -50 -137 -115 -70 -46 -78 -69 -42 -115 26 -33 54 -33 103
0 26 18 41 23 48 16 14 -14 -69 -67 -118 -77 -49 -9 -101 11 -119 45 -34 66
-8 186 51 242 38 35 68 47 127 47 41 1 50 -2 54 -20z m903 -844 c0 -13 -74
-15 -605 -15 -531 0 -605 2 -605 15 0 13 74 15 605 15 531 0 605 -2 605 -15z"/>
<path d="M592 1124 c-26 -18 -47 -55 -57 -102 l-7 -32 56 37 c51 35 56 41 53
72 -2 40 -14 47 -45 25z"/>
</g>
</svg>
